<mxfile host="Electron" agent="Mozilla/5.0 (Windows NT 10.0; Win64; x64) AppleWebKit/537.36 (KHTML, like Gecko) draw.io/25.0.1 Chrome/128.0.6613.186 Electron/32.2.6 Safari/537.36" version="25.0.1">
  <diagram name="Page-1" id="2EY_sPybldkTO2i7MSr7">
    <mxGraphModel dx="914" dy="740" grid="1" gridSize="10" guides="1" tooltips="1" connect="1" arrows="1" fold="1" page="1" pageScale="1" pageWidth="850" pageHeight="1100" math="0" shadow="0">
      <root>
        <mxCell id="0" />
        <mxCell id="1" parent="0" />
        <mxCell id="1F637b-0v5_sF-KIqufE-1" value="ContosoSuitesDashboard" style="rounded=0;whiteSpace=wrap;html=1;" vertex="1" parent="1">
          <mxGeometry x="260" y="160" width="200" height="60" as="geometry" />
        </mxCell>
        <mxCell id="1F637b-0v5_sF-KIqufE-7" style="edgeStyle=orthogonalEdgeStyle;rounded=0;orthogonalLoop=1;jettySize=auto;html=1;exitX=0;exitY=0.5;exitDx=0;exitDy=0;entryX=1;entryY=0.5;entryDx=0;entryDy=0;" edge="1" parent="1" source="1F637b-0v5_sF-KIqufE-2" target="1F637b-0v5_sF-KIqufE-1">
          <mxGeometry relative="1" as="geometry" />
        </mxCell>
        <mxCell id="1F637b-0v5_sF-KIqufE-2" value="&lt;b&gt;ContosoSuitesWebAPI&lt;/b&gt;" style="rounded=0;whiteSpace=wrap;html=1;" vertex="1" parent="1">
          <mxGeometry x="530" y="160" width="170" height="60" as="geometry" />
        </mxCell>
        <mxCell id="1F637b-0v5_sF-KIqufE-3" value="" style="verticalLabelPosition=bottom;html=1;verticalAlign=top;align=center;strokeColor=none;fillColor=#00BEF2;shape=mxgraph.azure.sql_database;" vertex="1" parent="1">
          <mxGeometry x="596.25" y="290" width="37.5" height="50" as="geometry" />
        </mxCell>
        <mxCell id="1F637b-0v5_sF-KIqufE-5" style="edgeStyle=orthogonalEdgeStyle;rounded=0;orthogonalLoop=1;jettySize=auto;html=1;exitX=0.5;exitY=1;exitDx=0;exitDy=0;entryX=0.5;entryY=0;entryDx=0;entryDy=0;entryPerimeter=0;" edge="1" parent="1" source="1F637b-0v5_sF-KIqufE-2" target="1F637b-0v5_sF-KIqufE-3">
          <mxGeometry relative="1" as="geometry" />
        </mxCell>
        <mxCell id="1F637b-0v5_sF-KIqufE-6" value="&lt;b&gt;&lt;u&gt;Programs.cs (API endpoints)&lt;/u&gt;&lt;/b&gt;&lt;div&gt;/&lt;span style=&quot;white-space: pre;&quot;&gt;&#x9;&lt;span style=&quot;white-space: pre;&quot;&gt;&#x9;&lt;span style=&quot;white-space: pre;&quot;&gt;&#x9;&lt;/span&gt;&lt;span style=&quot;white-space: pre;&quot;&gt;&#x9;&lt;/span&gt;&lt;span style=&quot;white-space: pre;&quot;&gt;&#x9;&lt;/span&gt;&lt;span style=&quot;white-space: pre;&quot;&gt;&#x9;&lt;/span&gt;&lt;/span&gt;&lt;/span&gt;Welcome to Contoso Suties API&lt;div style=&quot;&quot;&gt;/Hotels&lt;span style=&quot;white-space: pre;&quot;&gt;&#x9;&lt;span style=&quot;white-space: pre;&quot;&gt;&#x9;&lt;/span&gt;&lt;span style=&quot;white-space: pre;&quot;&gt;&#x9;&lt;/span&gt;&lt;span style=&quot;white-space: pre;&quot;&gt;&#x9;&lt;/span&gt;&lt;span style=&quot;white-space: pre;&quot;&gt;&#x9;&lt;/span&gt;&lt;/span&gt;Retrieve set of hotels from database&lt;/div&gt;&lt;div style=&quot;&quot;&gt;/Hotels/{hotelID}/Bookings &lt;span style=&quot;white-space: pre;&quot;&gt;&#x9;&lt;/span&gt;Retrieve bookings per hotel&lt;/div&gt;&lt;/div&gt;&lt;div style=&quot;&quot;&gt;&lt;br&gt;&lt;/div&gt;&lt;div style=&quot;&quot;&gt;&lt;b&gt;&lt;u&gt;/Services/DatabaseService.cs&lt;/u&gt;&lt;/b&gt;&lt;/div&gt;&lt;div style=&quot;&quot;&gt;&lt;b&gt;&lt;u&gt;/Services/IDatabaseService.cs&lt;/u&gt;&lt;/b&gt;&lt;/div&gt;&lt;div style=&quot;&quot;&gt;&lt;br&gt;&lt;/div&gt;" style="text;html=1;align=left;verticalAlign=middle;resizable=0;points=[];autosize=1;strokeColor=none;fillColor=none;" vertex="1" parent="1">
          <mxGeometry x="530" y="335" width="380" height="130" as="geometry" />
        </mxCell>
        <mxCell id="1F637b-0v5_sF-KIqufE-9" style="edgeStyle=orthogonalEdgeStyle;rounded=0;orthogonalLoop=1;jettySize=auto;html=1;entryX=0.5;entryY=0;entryDx=0;entryDy=0;" edge="1" parent="1" source="1F637b-0v5_sF-KIqufE-8" target="1F637b-0v5_sF-KIqufE-1">
          <mxGeometry relative="1" as="geometry" />
        </mxCell>
        <mxCell id="1F637b-0v5_sF-KIqufE-8" value="" style="points=[[0.35,0,0],[0.98,0.51,0],[1,0.71,0],[0.67,1,0],[0,0.795,0],[0,0.65,0]];verticalLabelPosition=bottom;sketch=0;html=1;verticalAlign=top;aspect=fixed;align=center;pointerEvents=1;shape=mxgraph.cisco19.user;fillColor=#005073;strokeColor=none;" vertex="1" parent="1">
          <mxGeometry x="335" y="30" width="50" height="50" as="geometry" />
        </mxCell>
      </root>
    </mxGraphModel>
  </diagram>
</mxfile>
